<svg width="22" height="22" viewBox="0 0 22 22" fill="none" xmlns="http://www.w3.org/2000/svg">
<path d="M19.7386 6.51906C19.7525 6.71449 19.7525 6.90995 19.7525 7.10537C19.7525 13.066 15.2157 19.934 6.92386 19.934C4.36928 19.934 1.9962 19.1942 0 17.9099C0.362957 17.9518 0.711906 17.9658 1.08883 17.9658C3.19666 17.9658 5.13704 17.2539 6.68654 16.0394C4.7043 15.9975 3.04313 14.6993 2.47079 12.9125C2.75 12.9543 3.02917 12.9823 3.32234 12.9823C3.72715 12.9823 4.132 12.9264 4.50888 12.8287C2.4429 12.4099 0.893363 10.5952 0.893363 8.40359V8.34777C1.49359 8.6828 2.19162 8.89218 2.93141 8.92007C1.71695 8.11041 0.921293 6.72845 0.921293 5.16499C0.921293 4.32744 1.1446 3.55968 1.53549 2.88962C3.75504 5.62566 7.09135 7.41243 10.8324 7.60789C10.7626 7.27286 10.7207 6.92392 10.7207 6.57492C10.7207 4.09013 12.7309 2.06604 15.2296 2.06604C16.5278 2.06604 17.7004 2.61045 18.524 3.4899C19.543 3.29447 20.5202 2.91755 21.3857 2.40107C21.0506 3.44804 20.3387 4.32749 19.4035 4.88582C20.3109 4.78815 21.1903 4.53683 21.9999 4.18788C21.3858 5.08124 20.618 5.8769 19.7386 6.51906Z" fill="#FAF4E6"/>
</svg>
