<svg width="13" height="18" viewBox="0 0 13 18" fill="none" xmlns="http://www.w3.org/2000/svg">
<path d="M9.3776 6.00117C10.1439 6.00117 10.8789 5.68504 11.4207 5.12232C11.9626 4.5596 12.267 3.79639 12.267 3.00059C12.267 2.20478 11.9626 1.44157 11.4207 0.878851C10.8789 0.316132 10.1439 0 9.3776 0L3.59869 0C2.83281 0 2.0983 0.315947 1.55674 0.878336C1.01518 1.44073 0.710936 2.20349 0.710936 2.99883C0.710936 3.79417 1.01518 4.55693 1.55674 5.11932C2.0983 5.68171 2.83281 5.99766 3.59869 5.99766C2.83236 5.99766 2.09742 6.31379 1.55554 6.87651C1.01367 7.43923 0.709244 8.20244 0.709244 8.99824C0.709244 9.79405 1.01367 10.5573 1.55554 11.12C2.09742 11.6827 2.83236 11.9988 3.59869 11.9988C3.02722 11.9985 2.46847 12.1741 1.99312 12.5035C1.51776 12.833 1.14715 13.3014 0.928146 13.8495C0.709141 14.3977 0.65158 15.0009 0.762742 15.5831C0.873903 16.1652 1.1488 16.7 1.55266 17.1199C1.95652 17.5398 2.4712 17.8259 3.03164 17.942C3.59207 18.0581 4.17308 17.9991 4.70118 17.7723C5.22929 17.5455 5.68078 17.1612 5.99855 16.6679C6.31633 16.1747 6.48612 15.5946 6.48645 15.0012V6.00117H9.3776ZM9.3776 6.00117C8.80645 6.00117 8.24813 6.17705 7.77324 6.50657C7.29835 6.83608 6.92822 7.30443 6.70966 7.8524C6.49109 8.40036 6.4339 9.00333 6.54533 9.58504C6.65675 10.1668 6.93178 10.7011 7.33564 11.1205C7.7395 11.5399 8.25405 11.8255 8.81422 11.9412C9.37439 12.0569 9.95502 11.9975 10.4827 11.7706C11.0104 11.5436 11.4614 11.1592 11.7787 10.6661C12.096 10.1729 12.2654 9.59311 12.2654 9C12.2653 8.20469 11.961 7.44198 11.4195 6.87961C10.8779 6.31724 10.1435 6.00127 9.3776 6.00117Z" fill="#FAF4E6"/>
</svg>
